<?xml version="1.0"?>
<svg xmlns="http://www.w3.org/2000/svg" viewBox="0 0 64 64" width="512" height="512"><title>Mobile-App-Development-application-coding</title><g id="FillOutline"><rect x="18" y="7" width="28" height="50" rx="3" ry="3" style="fill:#56a8c6"/><rect x="22" y="18" width="4" height="4" style="fill:#fbb03b"/><rect x="30" y="18" width="4" height="4" style="fill:#fbb03b"/><rect x="22" y="26" width="4" height="4" style="fill:#fbb03b"/><rect x="30" y="26" width="4" height="4" style="fill:#fbb03b"/><rect x="30" y="34" width="4" height="4" style="fill:#fbb03b"/><rect x="38" y="34" width="4" height="4" style="fill:#fbb03b"/><rect x="30" y="42" width="4" height="4" style="fill:#fbb03b"/><rect x="38" y="42" width="4" height="4" style="fill:#fbb03b"/><polygon points="57 30 40 30 40 22 38 20 40 18 40 14 57 14 57 30" style="fill:#c1272d"/><polygon points="45 18 45 26 53 22 45 18" style="fill:#dfd9d3"/><polygon points="7 50 24 50 24 46 26 44 24 42 24 34 7 34 7 50" style="fill:#f7931e"/><rect x="31" y="52" width="2" height="2"/><path d="M22,23h4a1,1,0,0,0,1-1V18a1,1,0,0,0-1-1H22a1,1,0,0,0-1,1v4A1,1,0,0,0,22,23Zm1-4h2v2H23Z"/><path d="M30,23h4a1,1,0,0,0,1-1V18a1,1,0,0,0-1-1H30a1,1,0,0,0-1,1v4A1,1,0,0,0,30,23Zm1-4h2v2H31Z"/><path d="M27,30V26a1,1,0,0,0-1-1H22a1,1,0,0,0-1,1v4a1,1,0,0,0,1,1h4A1,1,0,0,0,27,30Zm-2-1H23V27h2Z"/><path d="M30,31h4a1,1,0,0,0,1-1V26a1,1,0,0,0-1-1H30a1,1,0,0,0-1,1v4A1,1,0,0,0,30,31Zm1-4h2v2H31Z"/><path d="M30,39h4a1,1,0,0,0,1-1V34a1,1,0,0,0-1-1H30a1,1,0,0,0-1,1v4A1,1,0,0,0,30,39Zm1-4h2v2H31Z"/><path d="M38,39h4a1,1,0,0,0,1-1V34a1,1,0,0,0-1-1H38a1,1,0,0,0-1,1v4A1,1,0,0,0,38,39Zm1-4h2v2H39Z"/><path d="M30,47h4a1,1,0,0,0,1-1V42a1,1,0,0,0-1-1H30a1,1,0,0,0-1,1v4A1,1,0,0,0,30,47Zm1-4h2v2H31Z"/><path d="M38,47h4a1,1,0,0,0,1-1V42a1,1,0,0,0-1-1H38a1,1,0,0,0-1,1v4A1,1,0,0,0,38,47Zm1-4h2v2H39Z"/><rect x="29" y="10" width="6" height="2"/><path d="M44.474,26.851a1,1,0,0,0,.973.044l8-4a1,1,0,0,0,0-1.79l-8-4A1,1,0,0,0,44,18v8A1,1,0,0,0,44.474,26.851ZM46,19.618,50.764,22,46,24.382Z"/><path d="M6,34V50a1,1,0,0,0,1,1H17v3a4,4,0,0,0,4,4H43a4,4,0,0,0,4-4V31H57a1,1,0,0,0,1-1V14a1,1,0,0,0-1-1H47V10a4,4,0,0,0-4-4H21a4,4,0,0,0-4,4V33H7A1,1,0,0,0,6,34Zm50-5H41V22a1,1,0,0,0-.293-.707L39.414,20l1.293-1.293A1,1,0,0,0,41,18V15H56ZM19,10a2,2,0,0,1,2-2H43a2,2,0,0,1,2,2v3H40a1,1,0,0,0-1,1v3.586l-1.707,1.707a1,1,0,0,0,0,1.414L39,22.414V30a1,1,0,0,0,1,1h5V54a2,2,0,0,1-2,2H21a2,2,0,0,1-2-2V51h5a1,1,0,0,0,1-1V46.414l1.707-1.707a1,1,0,0,0,0-1.414L25,41.586V34a1,1,0,0,0-1-1H19ZM8,35H23v7a1,1,0,0,0,.293.707L24.586,44l-1.293,1.293A1,1,0,0,0,23,46v3H8Z"/><rect x="10" y="37" width="2" height="2"/><rect x="14" y="37" width="7" height="2"/><rect x="10" y="41" width="11" height="2"/><rect x="10" y="45" width="11" height="2"/><rect x="13" y="14" width="2" height="16"/><rect x="49" y="34" width="2" height="14"/><rect x="49" y="50" width="2" height="2"/></g></svg>
