<?xml version="1.0" encoding="utf-8"?>
<!-- Generator: Adobe Illustrator 22.1.0, SVG Export Plug-In . SVG Version: 6.00 Build 0)  -->
<svg xmlns="http://www.w3.org/2000/svg" xmlns:xlink="http://www.w3.org/1999/xlink" version="1.1" id="Layer_1" x="0px" y="0px" viewBox="0 0 512 512" style="enable-background:new 0 0 512 512;" xml:space="preserve" width="512" height="512">
<style type="text/css">
	.st0{fill:#FF9079;}
	.st1{fill:#FF624B;}
	.st2{fill:#FF4B34;}
	.st3{fill:#E58D23;}
	.st4{fill:#BF6C0D;}
	.st5{fill:#A56021;}
	.st6{fill:#8C4C17;}
	.st7{fill:#FCDA4F;}
	.st8{fill:#EACF32;}
	.st9{fill:#CCC033;}
	.st10{fill:#FFA730;}
	.st11{fill:#FFDF74;}
	.st12{fill:#F9BB32;}
	.st13{fill:#FFD551;}
	.st14{fill:#FFF4C1;}
	.st15{fill:#FFB74B;}
	.st16{fill:#FCE575;}
	.st17{fill:#FCF9DE;}
	.st18{fill:#99AF17;}
	.st19{fill:#FFEACF;}
	.st20{fill:#FFD59A;}
	.st21{fill:#DB9C2E;}
</style>
<g>
	<g>
		<path class="st3" d="M137.598,447.042h236.805c-53.511-19.855-43.584-119.129-43.584-119.129H181.181h149.637H181.181    C181.181,327.913,191.109,427.187,137.598,447.042h236.805H137.598z"/>
	</g>
	<g>
		<path class="st4" d="M223.355,385.903h110.198c-5.579-29.505-2.735-57.989-2.735-57.989H181.181c0,0,9.928,99.274-43.584,119.129    h82.394C226.404,416.449,223.355,385.903,223.355,385.903z"/>
	</g>
	<g>
		<path class="st10" d="M336.306,439.544c-1.501,0-3.004-0.56-4.169-1.686c-14.844-14.348-21.918-35.032-22.212-35.905    c-1.057-3.141,0.633-6.543,3.773-7.6c3.133-1.056,6.541,0.631,7.599,3.77c0.111,0.325,6.528,18.878,19.18,31.107    c2.383,2.303,2.447,6.102,0.145,8.484C339.443,438.932,337.876,439.544,336.306,439.544z"/>
	</g>
	<g>
		<path class="st10" d="M402.147,470.287H109.853c-4.418,0-8-3.582-8-8v-7.245c0-4.418,3.582-8,8-8h292.294c4.418,0,8,3.582,8,8    v7.245C410.147,466.705,406.565,470.287,402.147,470.287z"/>
	</g>
	<g>
		<path class="st3" d="M165.114,461.852v-6.375c0-4.658,3.776-8.435,8.435-8.435h-63.261c-4.659,0-8.435,3.776-8.435,8.435v6.375    c0,4.658,3.776,8.435,8.435,8.435h63.261C168.89,470.287,165.114,466.51,165.114,461.852z"/>
	</g>
	<g>
		<path class="st10" d="M461.735,41.713H50.265c-8.734,0-15.815,7.081-15.815,15.815v254.404v14.528v20.131    c0,14.558,11.801,26.359,26.359,26.359h390.384c14.558,0,26.359-11.801,26.359-26.359V326.46v-14.528V57.529    C477.551,48.794,470.47,41.713,461.735,41.713z"/>
	</g>
	<g>
		<circle class="st11" cx="256" cy="342.441" r="19.613"/>
	</g>
	<g>
		<circle class="st3" cx="124.069" cy="342.441" r="15.815"/>
	</g>
	<g>
		<path class="st13" d="M249.387,342.441c0-8.55,5.481-15.802,13.113-18.487c-2.037-0.716-4.218-1.126-6.5-1.126    c-10.832,0-19.613,8.781-19.613,19.613s8.781,19.613,19.613,19.613c2.282,0,4.463-0.41,6.5-1.126    C254.868,358.243,249.387,350.991,249.387,342.441z"/>
	</g>
	<g>
		<path class="st3" d="M84.449,346.591v-20.13v-14.528V57.529c0-8.735,7.081-15.815,15.815-15.815h-50    c-8.734,0-15.815,7.081-15.815,15.815v254.404v14.528v20.13c0,14.558,11.801,26.359,26.359,26.359h50    C96.251,372.95,84.449,361.148,84.449,346.591z"/>
	</g>
	<g>
		<path class="st14" d="M50.264,310.645V67.529c0-5.523,4.477-10,10-10h391.472c5.523,0,10,4.477,10,10v243.116H50.264z"/>
	</g>
	<g>
		<path class="st15" d="M350.743,173.62H95.772c-9.941,0-18-8.059-18-18V99.385c0-9.941,8.059-18,18-18h254.971    c9.941,0,18,8.059,18,18v56.235C368.743,165.561,360.684,173.62,350.743,173.62z"/>
	</g>
	<g>
		<path class="st16" d="M84.449,57.529H60.264c-5.523,0-10,4.477-10,10v243.116h34.185V57.529L84.449,57.529z"/>
	</g>
	<g>
		<path class="st15" d="M426.485,287.422H171.515c-9.941,0-18-8.059-18-18v-56.235c0-9.941,8.059-18,18-18h254.971    c9.941,0,18,8.059,18,18v56.235C444.485,279.363,436.427,287.422,426.485,287.422z"/>
	</g>
	<g>
		<path class="st9" d="M159.257,173.62H95.772c-9.941,0-18-8.059-18-18V99.385c0-9.941,8.059-18,18-18h63.485    c9.941,0,18,8.059,18,18v56.235C177.257,165.561,169.198,173.62,159.257,173.62z"/>
	</g>
	<g>
		<path class="st2" d="M235,287.422h-63.485c-9.941,0-18-8.059-18-18v-56.235c0-9.941,8.059-18,18-18H235c9.941,0,18,8.059,18,18    v56.235C253,279.363,244.941,287.422,235,287.422z"/>
	</g>
	<g>
		<g>
			<path class="st14" d="M143.778,150.807l3.467,3.674c2.533,2.685,0.63,7.098-3.062,7.098h0c-1.174,0-2.295-0.49-3.091-1.352     l-6.844-7.405c-1-1.082-2.487-1.535-3.935-1.261c-1.805,0.342-3.689,0.499-5.651,0.499c-15.681,0-28.401-11.76-28.401-28.48     c0-16.641,12.72-28.401,28.401-28.401c15.84,0,28.4,11.76,28.4,28.401c0,8.818-3.455,16.22-9.078,21.253     C142.24,146.394,142.171,149.105,143.778,150.807z M124.661,144.139c11.04,0,19.041-8,19.041-20.56     c0-12.561-8-20.401-19.041-20.401c-11.041,0-19.041,7.84-19.041,20.401C105.621,136.139,113.621,144.139,124.661,144.139z"/>
		</g>
	</g>
	<g>
		<g>
			<path class="st14" d="M211.908,256.941h-17.32c-1.786,0-3.377,1.127-3.971,2.811l-2.02,5.737     c-0.593,1.685-2.185,2.811-3.971,2.811h-0.563c-2.912,0-4.944-2.886-3.963-5.627l16.908-47.262     c0.599-1.674,2.185-2.792,3.963-2.792h4.63c1.778,0,3.365,1.117,3.963,2.792l16.908,47.262c0.981,2.742-1.052,5.627-3.963,5.627     h-0.643c-1.786,0-3.377-1.127-3.971-2.811l-2.02-5.737C215.286,258.068,213.694,256.941,211.908,256.941z M199.302,234.957     l-3.153,8.934c-0.967,2.739,1.065,5.61,3.969,5.61h6.279c2.899,0,4.931-2.863,3.973-5.6l-3.126-8.934     C205.931,231.214,200.625,231.207,199.302,234.957z"/>
		</g>
	</g>
	<g>
		<g>
			<path class="st5" d="M345.573,136.503H198.858c-4.797,0-8.685-4.029-8.685-9c0-4.971,3.888-9,8.685-9h146.715     c4.797,0,8.685,4.029,8.685,9C354.257,132.473,350.369,136.503,345.573,136.503z"/>
		</g>
	</g>
	<g>
		<g>
			<path class="st5" d="M425.543,237.304H278.828c-4.797,0-8.685-4.029-8.685-9s3.888-9,8.685-9h146.715     c4.797,0,8.685,4.029,8.685,9S430.34,237.304,425.543,237.304z"/>
		</g>
	</g>
	<g>
		<path class="st5" d="M371.003,270.304h-91.86c-4.971,0-9-4.029-9-9v0c0-4.971,4.029-9,9-9h91.86c4.971,0,9,4.029,9,9v0    C380.003,266.275,375.974,270.304,371.003,270.304z"/>
	</g>
	<g>
		<path class="st17" d="M440.508,125.295c-3.313,0-6-2.686-6-6V99.026c0-3.314,2.687-6,6-6s6,2.686,6,6v20.269    C446.508,122.608,443.821,125.295,440.508,125.295z"/>
	</g>
	<g>
		<path class="st17" d="M440.508,265.638c-3.313,0-6-2.686-6-6V144.781c0-3.314,2.687-6,6-6s6,2.686,6,6v114.856    C446.508,262.951,443.821,265.638,440.508,265.638z"/>
	</g>
	<g>
		<path class="st18" d="M84.449,85.4c-4.071,3.3-6.677,8.336-6.677,13.985v56.235c0,5.649,2.606,10.685,6.677,13.985V85.4z"/>
	</g>
</g>
</svg>
